<svg width="578" height="80" viewBox="0 0 578 80" fill="none" xmlns="http://www.w3.org/2000/svg">
<path d="M5.61133 63V14.6562H21.416C26.6621 14.6562 30.6022 15.7409 33.2363 17.9102C35.8926 20.0794 37.2207 23.2891 37.2207 27.5391C37.2207 29.7969 36.5788 31.8001 35.2949 33.5488C34.0111 35.2754 32.2624 36.6146 30.0488 37.5664C32.6608 38.2969 34.7194 39.6914 36.2246 41.75C37.752 43.7865 38.5156 46.2214 38.5156 49.0547C38.5156 53.3932 37.11 56.8021 34.2988 59.2812C31.4876 61.7604 27.5143 63 22.3789 63H5.61133ZM11.9863 40.3887V57.7871H22.5117C25.4779 57.7871 27.8132 57.0234 29.5176 55.4961C31.2441 53.9466 32.1074 51.8216 32.1074 49.1211C32.1074 43.2995 28.9421 40.3887 22.6113 40.3887H11.9863ZM11.9863 35.2754H21.6152C24.4043 35.2754 26.6289 34.5781 28.2891 33.1836C29.9714 31.7891 30.8125 29.8965 30.8125 27.5059C30.8125 24.8496 30.0378 22.9238 28.4883 21.7285C26.9388 20.5111 24.5814 19.9023 21.416 19.9023H11.9863V35.2754ZM69.1953 59.4473C66.8047 62.2585 63.2962 63.6641 58.6699 63.6641C54.8405 63.6641 51.9186 62.5573 49.9043 60.3438C47.9121 58.1081 46.9049 54.8099 46.8828 50.4492V27.0742H53.0254V50.2832C53.0254 55.7285 55.2389 58.4512 59.666 58.4512C64.3587 58.4512 67.4798 56.7025 69.0293 53.2051V27.0742H75.1719V63H69.3281L69.1953 59.4473ZM105.453 53.4707C105.453 51.8105 104.822 50.5267 103.561 49.6191C102.321 48.6895 100.141 47.8926 97.0195 47.2285C93.9206 46.5645 91.4525 45.7676 89.6152 44.8379C87.8001 43.9082 86.4499 42.8014 85.5645 41.5176C84.7012 40.2337 84.2695 38.7064 84.2695 36.9355C84.2695 33.9915 85.5091 31.5013 87.9883 29.4648C90.4896 27.4284 93.6771 26.4102 97.5508 26.4102C101.624 26.4102 104.922 27.4616 107.445 29.5645C109.991 31.6673 111.264 34.3568 111.264 37.6328H105.088C105.088 35.9505 104.368 34.5007 102.93 33.2832C101.513 32.0658 99.7201 31.457 97.5508 31.457C95.3151 31.457 93.5664 31.944 92.3047 32.918C91.043 33.8919 90.4121 35.1647 90.4121 36.7363C90.4121 38.2194 90.9987 39.3372 92.1719 40.0898C93.3451 40.8424 95.459 41.5618 98.5137 42.248C101.59 42.9342 104.081 43.7533 105.984 44.7051C107.888 45.6569 109.294 46.8079 110.201 48.1582C111.131 49.4863 111.596 51.1133 111.596 53.0391C111.596 56.2487 110.312 58.8275 107.744 60.7754C105.176 62.7012 101.845 63.6641 97.75 63.6641C94.8724 63.6641 92.3268 63.1549 90.1133 62.1367C87.8997 61.1185 86.1621 59.7018 84.9004 57.8867C83.6608 56.0495 83.041 54.0684 83.041 51.9434H89.1836C89.2943 54.002 90.1133 55.64 91.6406 56.8574C93.1901 58.0527 95.2266 58.6504 97.75 58.6504C100.074 58.6504 101.934 58.1855 103.328 57.2559C104.745 56.304 105.453 55.0423 105.453 53.4707ZM134.008 58.6504C136.199 58.6504 138.114 57.9863 139.752 56.6582C141.39 55.3301 142.298 53.6699 142.475 51.6777H148.285C148.174 53.7363 147.466 55.6953 146.16 57.5547C144.854 59.4141 143.105 60.8971 140.914 62.0039C138.745 63.1107 136.443 63.6641 134.008 63.6641C129.116 63.6641 125.22 62.0371 122.32 58.7832C119.443 55.5072 118.004 51.0358 118.004 45.3691V44.3398C118.004 40.8424 118.646 37.7324 119.93 35.0098C121.214 32.2871 123.051 30.1732 125.441 28.668C127.854 27.1628 130.699 26.4102 133.975 26.4102C138.003 26.4102 141.346 27.6165 144.002 30.0293C146.68 32.4421 148.108 35.5742 148.285 39.4258H142.475C142.298 37.1016 141.412 35.1979 139.818 33.7148C138.247 32.2096 136.299 31.457 133.975 31.457C130.854 31.457 128.43 32.5859 126.703 34.8438C124.999 37.0794 124.146 40.3223 124.146 44.5723V45.7344C124.146 49.8737 124.999 53.0612 126.703 55.2969C128.408 57.5326 130.842 58.6504 134.008 58.6504ZM177.371 63C177.017 62.2917 176.729 61.0299 176.508 59.2148C173.652 62.181 170.243 63.6641 166.281 63.6641C162.74 63.6641 159.829 62.668 157.549 60.6758C155.291 58.6615 154.162 56.1159 154.162 53.0391C154.162 49.2982 155.579 46.3984 158.412 44.3398C161.268 42.2591 165.274 41.2188 170.432 41.2188H176.408V38.3965C176.408 36.2493 175.766 34.5449 174.482 33.2832C173.199 31.9993 171.306 31.3574 168.805 31.3574C166.613 31.3574 164.776 31.9108 163.293 33.0176C161.81 34.1243 161.068 35.4635 161.068 37.0352H154.893C154.893 35.2422 155.523 33.5156 156.785 31.8555C158.069 30.1732 159.796 28.8451 161.965 27.8711C164.156 26.8971 166.558 26.4102 169.17 26.4102C173.309 26.4102 176.552 27.4505 178.898 29.5312C181.245 31.5898 182.462 34.4342 182.551 38.0645V54.5996C182.551 57.8978 182.971 60.5208 183.812 62.4688V63H177.371ZM167.178 58.3184C169.104 58.3184 170.93 57.8203 172.656 56.8242C174.383 55.8281 175.633 54.5332 176.408 52.9395V45.5684H171.594C164.068 45.5684 160.305 47.7708 160.305 52.1758C160.305 54.1016 160.947 55.6068 162.23 56.6914C163.514 57.776 165.163 58.3184 167.178 58.3184ZM237.336 40.6543H216.385V57.7871H240.723V63H210.01V14.6562H240.391V19.9023H216.385V35.4414H237.336V40.6543ZM253.506 27.0742L253.705 31.5898C256.45 28.1367 260.036 26.4102 264.463 26.4102C272.055 26.4102 275.885 30.6934 275.951 39.2598V63H269.809V39.2266C269.786 36.6367 269.189 34.722 268.016 33.4824C266.865 32.2428 265.061 31.623 262.604 31.623C260.611 31.623 258.863 32.1543 257.357 33.2168C255.852 34.2793 254.679 35.6738 253.838 37.4004V63H247.695V27.0742H253.506ZM283.721 44.7383C283.721 39.2266 285.027 34.7995 287.639 31.457C290.251 28.0924 293.671 26.4102 297.898 26.4102C302.104 26.4102 305.436 27.849 307.893 30.7266V12H314.035V63H308.391L308.092 59.1484C305.635 62.1589 302.215 63.6641 297.832 63.6641C293.671 63.6641 290.273 61.9596 287.639 58.5508C285.027 55.1419 283.721 50.6927 283.721 45.2031V44.7383ZM289.863 45.4355C289.863 49.5085 290.704 52.696 292.387 54.998C294.069 57.3001 296.393 58.4512 299.359 58.4512C303.255 58.4512 306.1 56.7025 307.893 53.2051V36.7031C306.055 33.3164 303.233 31.623 299.426 31.623C296.415 31.623 294.069 32.7852 292.387 35.1094C290.704 37.4336 289.863 40.8757 289.863 45.4355ZM338.506 63.6641C333.636 63.6641 329.674 62.0703 326.619 58.8828C323.564 55.6732 322.037 51.39 322.037 46.0332V44.9043C322.037 41.3405 322.712 38.1641 324.062 35.375C325.435 32.5638 327.339 30.3724 329.773 28.8008C332.23 27.207 334.887 26.4102 337.742 26.4102C342.413 26.4102 346.043 27.9486 348.633 31.0254C351.223 34.1022 352.518 38.5072 352.518 44.2402V46.7969H328.18C328.268 50.3385 329.298 53.2051 331.268 55.3965C333.26 57.5658 335.783 58.6504 338.838 58.6504C341.007 58.6504 342.844 58.2077 344.35 57.3223C345.855 56.4368 347.172 55.2637 348.301 53.8027L352.053 56.7246C349.042 61.3509 344.527 63.6641 338.506 63.6641ZM337.742 31.457C335.263 31.457 333.182 32.3646 331.5 34.1797C329.818 35.9727 328.777 38.4961 328.379 41.75H346.375V41.2852C346.198 38.1641 345.357 35.7513 343.852 34.0469C342.346 32.3203 340.31 31.457 337.742 31.457ZM377.021 32.5859C376.092 32.431 375.085 32.3535 374 32.3535C369.971 32.3535 367.238 34.069 365.799 37.5V63H359.656V27.0742H365.633L365.732 31.2246C367.747 28.015 370.602 26.4102 374.299 26.4102C375.494 26.4102 376.402 26.5651 377.021 26.875V32.5859ZM396.943 63.6641C392.074 63.6641 388.111 62.0703 385.057 58.8828C382.002 55.6732 380.475 51.39 380.475 46.0332V44.9043C380.475 41.3405 381.15 38.1641 382.5 35.375C383.872 32.5638 385.776 30.3724 388.211 28.8008C390.668 27.207 393.324 26.4102 396.18 26.4102C400.85 26.4102 404.48 27.9486 407.07 31.0254C409.66 34.1022 410.955 38.5072 410.955 44.2402V46.7969H386.617C386.706 50.3385 387.735 53.2051 389.705 55.3965C391.697 57.5658 394.221 58.6504 397.275 58.6504C399.445 58.6504 401.282 58.2077 402.787 57.3223C404.292 56.4368 405.609 55.2637 406.738 53.8027L410.49 56.7246C407.48 61.3509 402.964 63.6641 396.943 63.6641ZM396.18 31.457C393.701 31.457 391.62 32.3646 389.938 34.1797C388.255 35.9727 387.215 38.4961 386.816 41.75H404.812V41.2852C404.635 38.1641 403.794 35.7513 402.289 34.0469C400.784 32.3203 398.747 31.457 396.18 31.457ZM432.504 58.6504C434.695 58.6504 436.61 57.9863 438.248 56.6582C439.886 55.3301 440.794 53.6699 440.971 51.6777H446.781C446.671 53.7363 445.962 55.6953 444.656 57.5547C443.35 59.4141 441.602 60.8971 439.41 62.0039C437.241 63.1107 434.939 63.6641 432.504 63.6641C427.612 63.6641 423.716 62.0371 420.816 58.7832C417.939 55.5072 416.5 51.0358 416.5 45.3691V44.3398C416.5 40.8424 417.142 37.7324 418.426 35.0098C419.71 32.2871 421.547 30.1732 423.938 28.668C426.35 27.1628 429.195 26.4102 432.471 26.4102C436.499 26.4102 439.842 27.6165 442.498 30.0293C445.176 32.4421 446.604 35.5742 446.781 39.4258H440.971C440.794 37.1016 439.908 35.1979 438.314 33.7148C436.743 32.2096 434.795 31.457 432.471 31.457C429.35 31.457 426.926 32.5859 425.199 34.8438C423.495 37.0794 422.643 40.3223 422.643 44.5723V45.7344C422.643 49.8737 423.495 53.0612 425.199 55.2969C426.904 57.5326 429.339 58.6504 432.504 58.6504ZM433.5 63.2988L433.102 65.0254C436.488 65.623 438.182 67.5378 438.182 70.7695C438.182 72.9167 437.296 74.61 435.525 75.8496C433.755 77.1113 431.286 77.7422 428.121 77.7422L427.889 74.1895C429.637 74.1895 430.988 73.9017 431.939 73.3262C432.913 72.7507 433.4 71.9427 433.4 70.9023C433.4 69.9284 433.046 69.209 432.338 68.7441C431.63 68.2793 430.191 67.9473 428.021 67.748L429.084 63.2988H433.5ZM452.061 44.7051C452.061 41.1855 452.747 38.0202 454.119 35.209C455.514 32.3978 457.439 30.2285 459.896 28.7012C462.376 27.1738 465.198 26.4102 468.363 26.4102C473.255 26.4102 477.206 28.1035 480.217 31.4902C483.249 34.877 484.766 39.3815 484.766 45.0039V45.4355C484.766 48.9329 484.09 52.0762 482.74 54.8652C481.412 57.6322 479.497 59.7904 476.996 61.3398C474.517 62.8893 471.661 63.6641 468.43 63.6641C463.56 63.6641 459.609 61.9707 456.576 58.584C453.566 55.1973 452.061 50.7148 452.061 45.1367V44.7051ZM458.236 45.4355C458.236 49.4199 459.155 52.6185 460.992 55.0312C462.852 57.444 465.331 58.6504 468.43 58.6504C471.551 58.6504 474.03 57.4329 475.867 54.998C477.704 52.541 478.623 49.11 478.623 44.7051C478.623 40.765 477.682 37.5775 475.801 35.1426C473.941 32.6855 471.462 31.457 468.363 31.457C465.331 31.457 462.885 32.6634 461.025 35.0762C459.166 37.4889 458.236 40.9421 458.236 45.4355Z" fill="#333333"/>
<path d="M548.143 51.7894C548.287 51.5544 548.432 51.3238 548.576 51.0844C555.069 40.3344 558.337 30.9306 558.29 23.1375C558.261 17.7758 556.111 12.6436 552.31 8.86211C548.509 5.08068 543.365 2.95754 538.004 2.95663C532.642 2.95572 527.498 5.07712 523.695 8.85727C519.893 12.6374 517.741 17.769 517.711 23.1306C517.663 30.9306 520.931 40.3356 527.424 51.0844C527.569 51.3238 527.713 51.5544 527.857 51.7894C514.187 53.4788 505.125 58.3644 505.125 64.165C505.125 71.4475 519.562 77.1519 538 77.1519C556.437 77.1519 570.875 71.4475 570.875 64.165C570.875 58.3644 561.812 53.4788 548.143 51.7894V51.7894ZM519.898 23.1375C519.885 20.7513 520.343 18.386 521.247 16.1777C522.151 13.9693 523.482 11.9614 525.165 10.2694C526.847 8.57751 528.848 7.23495 531.051 6.31897C533.255 5.403 535.618 4.93168 538.004 4.93213C540.39 4.93259 542.753 5.4048 544.956 6.32161C547.159 7.23843 549.159 8.58175 550.841 10.2743C552.523 11.9669 553.853 13.9753 554.757 16.184C555.66 18.3928 556.117 20.7582 556.102 23.1444C556.196 38.6806 541.671 57.8425 538 62.4375C534.329 57.8425 519.803 38.68 519.898 23.1375V23.1375ZM538 74.9644C519.643 74.9644 507.312 69.38 507.312 64.165C507.312 59.54 516.456 55.2369 529.146 53.8413C531.601 57.6736 534.279 61.3579 537.167 64.875C537.269 64.9959 537.397 65.093 537.541 65.1597C537.685 65.2263 537.841 65.2608 538 65.2608C538.159 65.2608 538.315 65.2263 538.459 65.1597C538.603 65.093 538.731 64.9959 538.833 64.875C541.721 61.3579 544.4 57.6736 546.854 53.8413C559.542 55.2369 568.688 59.5375 568.688 64.165C568.687 69.38 556.357 74.9644 538 74.9644Z" fill="#333333"/>
<path d="M529.057 68.6294C524.204 68.0081 520.307 66.9144 518.09 65.5513C517.968 65.473 517.831 65.4199 517.688 65.3951C517.545 65.3703 517.398 65.3742 517.256 65.4067C517.115 65.4391 516.981 65.4995 516.863 65.5842C516.745 65.6688 516.645 65.7762 516.569 65.8999C516.493 66.0236 516.442 66.1613 516.42 66.3048C516.398 66.4483 516.404 66.5948 516.439 66.7358C516.474 66.8768 516.537 67.0094 516.624 67.1259C516.71 67.2424 516.819 67.3405 516.944 67.4144C519.421 68.9369 523.625 70.1394 528.78 70.7988C528.826 70.8048 528.873 70.8077 528.92 70.8075C529.197 70.8062 529.464 70.6996 529.665 70.5093C529.867 70.3191 529.989 70.0594 530.006 69.7827C530.024 69.506 529.935 69.233 529.759 69.0189C529.583 68.8048 529.332 68.6656 529.057 68.6294V68.6294Z" fill="#333333"/>
<path d="M539.837 69.1519C538.313 69.1869 536.725 69.1788 535.176 69.1219C535.032 69.1166 534.889 69.1396 534.754 69.1897C534.619 69.2398 534.496 69.3159 534.39 69.4137C534.285 69.5115 534.2 69.6292 534.14 69.7598C534.08 69.8905 534.047 70.0317 534.042 70.1753C534.036 70.3189 534.059 70.4622 534.109 70.5969C534.159 70.7317 534.236 70.8552 534.333 70.9605C534.431 71.0658 534.549 71.1508 534.68 71.2107C534.81 71.2705 534.951 71.3041 535.095 71.3094C536.056 71.3444 537.033 71.3625 538 71.3625C538.636 71.3625 539.266 71.355 539.888 71.34C540.178 71.3333 540.454 71.2116 540.654 71.0018C540.854 70.792 540.963 70.5112 540.956 70.2212C540.955 70.077 540.924 69.9345 540.867 69.8022C540.81 69.6698 540.726 69.5503 540.622 69.4506C540.518 69.351 540.394 69.2732 540.26 69.2219C540.125 69.1706 539.981 69.1468 539.837 69.1519V69.1519Z" fill="#333333"/>
<path d="M547.236 23.1375C547.235 21.3108 546.693 19.5251 545.678 18.0064C544.663 16.4877 543.221 15.304 541.533 14.6052C539.845 13.9063 537.988 13.7236 536.196 14.0802C534.405 14.4368 532.759 15.3166 531.468 16.6084C530.176 17.9002 529.297 19.546 528.94 21.3377C528.584 23.1294 528.767 24.9864 529.466 26.674C530.166 28.3617 531.35 29.8041 532.869 30.8188C534.388 31.8336 536.173 32.3751 538 32.375C540.449 32.372 542.797 31.3978 544.528 29.666C546.259 27.9342 547.233 25.5864 547.236 23.1375V23.1375ZM530.951 23.1375C530.951 21.7435 531.365 20.3808 532.14 19.2218C532.914 18.0628 534.015 17.1595 535.303 16.6262C536.591 16.0929 538.009 15.9535 539.376 16.2256C540.743 16.4977 541.999 17.1691 542.985 18.155C543.97 19.1408 544.642 20.3968 544.913 21.7641C545.185 23.1314 545.046 24.5486 544.512 25.8365C543.979 27.1244 543.075 28.2252 541.916 28.9997C540.757 29.7741 539.394 30.1875 538 30.1875C536.131 30.1855 534.339 29.4421 533.018 28.1203C531.696 26.7986 530.953 25.0066 530.951 23.1375V23.1375Z" fill="#333333"/>
</svg>
